# xmcd
#
# Track frame offsets:
#	150
#	31702
#	52262
#	76137
#	101265
#	127160
#
# Disc length: 2272 seconds
#
# Revision: 7
# Processed by: cddbd v1.5.2PL0 Copyright (c) Steve Scherf et al.
# Submitted via: audiograbber 1.83.01
#
DISCID=4408de06
DTITLE=Eagles - Eagles Live {CD 1}
DYEAR=1980
DGENRE=Rock
TTITLE0=Hotel California
TTITLE1=Heartache Tonight
TTITLE2=I Can't Tell You Why
TTITLE3=The Long Run
TTITLE4=New Kid in Town
TTITLE5=Life's Been Good
EXTD=
EXTT0=
EXTT1=
EXTT2=
EXTT3=
EXTT4=
EXTT5=
PLAYORDER=
